<svg xmlns="http://www.w3.org/2000/svg" xmlns:xlink="http://www.w3.org/1999/xlink" viewBox="0 0 1224 792"><path d="M.6-5h1224.9v816.6H.6z" fill="#0F183F"/><defs><path id="A" d="M.6-5h1224.9v816.6H.6z"/></defs><clipPath id="B"><use xlink:href="#A"/></clipPath><g fill="#18234C"><path clip-path="url(#B)" d="M1296.4 270.8c-10.7-3.7-22.2-5.3-33.6-6.7-100.4-12-202.1-10-302.8-19.7-78.8-7.6-149.4-16.3-222.6 15.3-38.2 16.5-83.8 60.1-34.4 98.1 70.3 53.9 117-53.1 180.3-53.3 26-.1 47.3 19.1 69 33.4 98 64.8 197.9-1.5 302.6 5.2 12.9.8 25.8 2.9 38.7 1.8 41.2-3.3 51.2-47.7 14.8-68.6-3.7-2.3-7.8-4.1-12-5.5zM-173.2 114.9C-137.1 93.4-98.9 74.3-58 64.1c44.7-11.2 92-8.8 137.8-8.8 118.1 6.6 228.6 59.4 348.1 46.3C540.7 89.2 650 67.3 760.8 45c101.6-20.5 193.5-16.6 293.2 8.7 138.7 35.3 284.1 65.5 427.4 71.3 15.1 68.8-185.9 97.9-229.8 100.5-68.3 4-122.6-13.8-187.9-25.5-105.9-18.9-214.6-12.5-320.2 5.1-93.6 15.6-182.5 32.7-271.2 67-70 27-140.1 56-211.9 78.6-84.7 26.6-190.8 24-269.3-19.8-43-24-92.2-52.7-119.5-95.2-13.4-20.8-22.6-33.4-39.8-51.6-11.1-11.8-35.8-36.6-24-54.7 3.1-4.8 8.1-7.9 13-10.9 2-1.3 4-2.4 6-3.6zm1555.1 402.7c-28.5 5.3-58.5 14.4-81.8 14.8-48.2.8-96.2-5.1-142.8-14.3-93.4-18.4-186.2-39.5-283.8-33.8-83.1 4.9-159.2 39.9-183.5 103.3-23.9 62.4 30.3 121.1 100.1 150.9 77 32.9 232.7 35.8 277.8-36 24.3-38.7-50.8-86.7-97.4-88.9-20.3-1-59.3 1.5-60.8 23.1-1.2 18.9 28.7 25.1 47.2 30.1 27.9 7.5 47.1 25.2 13.4 38.2-34.7 13.4-79.5 2.9-112.5-9.2-33.8-12.4-106.3-39.4-99.9-74.8 3-16.8 42.7-43 63.8-47.3 27.8-5.7 69.1-4.9 97.1-1.5 66.6 7.9 122.3 39.8 186.8 52.7 71.2 14.1 144.6 22 218.2 21.9 54.8-.1 119.6-4.8 145-47.9 13.9-23.6 4.5-69.3-29.5-81.2-15.9-5.8-36.2-4-57.4-.1zM349.3 593.2c5.7 2.8 12 4.9 16.5 7 24.5 11.1 18.3 39.4-8.4 44.3-8 1.5-16.3.5-24.2-1.1-31.1-6.3-57.9-23-76.7-45.2-9-10.6-16.1-24.1-11.5-36.6 15.7-42.7 107.9-35.6 146-29.4 77.8 12.7 146.4 59 153.6 131.1 4 40-29.8 57.2-68 68.2-52.5 15.2-108.4 20.1-163.3 13.1-61.3-7.8-112.7-18-174.9-5.8-46.1 9-91.7 22.3-138.6 24.8-41 2.1-82.4-4.2-120.8-18.4-27.4-10.1-54.1-25-71.2-48.7-27.7-38.3-24.1-92.2-4.8-135.4 22.3-49.8 65.5-91.6 118.4-104.9 62.9-15.8 113.5 12.4 152.2 59.4 29.4 35.7 54.6 74.4 84.8 109.5 10.5 12.2 20.9 25.2 33.5 35.2 35.8 28.4 91.1 37.9 136.9 44.8 27 4.1 54.7 5.2 81.7.3 20.8-3.8 59.6-12.8 69.7-31.1 15.1-27.1-5.9-62.2-25.7-82.3-16.8-17.1-61-35-87.4-34.4-10.8.3-28.4 5.8-31.5 16-2.9 9.4 4.7 15.3 13.7 19.6z"/><path d="M822.1 366.7c4-3.5 9.3-5.4 13.3-8.7 4.5-3.8 7.8-9 12.4-12.9 9.2-7.8 20.4-13.3 32.2-15.5 37.6-7.3 75 21.4 98.4 48.2 8.2 9.4 8.7 19.6.3 28.7-18.3 19.5-44.5 34.5-69.7 42.8-16.3 5.4-35.6 8.2-52.4 3.6-15.5-4.3-25.4-18.3-33.2-31.6-6.5-11.1-10.4-24.7-9.1-37.6.9-8.7 3.7-13.3 7.8-17z"/></g></svg>