<svg xmlns="http://www.w3.org/2000/svg" xmlns:xlink="http://www.w3.org/1999/xlink" viewBox="90.5 0 85.3 100"><path d="M234.5-1.9H87.3a.65.65 0 0 0-.6.6v99.8a.65.65 0 0 0 .6.6h147.4a.65.65 0 0 0 .6-.6V-1.3c-.2-.4-.4-.6-.8-.6z" fill="#fff"/><path d="M61-12.2h118.4v119.5H61z" fill="#FDFDFF"/><defs><path id="A" d="M234.5-1.9H63.8c-.4 0-.7.3-.7.6V100c0 .3.3.6.7.6h170.7c.4 0 .7-.3.7-.6V-1.3c-.1-.3-.3-.6-.7-.6z"/></defs><clipPath id="B"><use xlink:href="#A"/></clipPath><linearGradient id="C" gradientUnits="userSpaceOnUse" x1="132.994" y1="82.234" x2="287.743" y2="-17.167"><stop offset="0" stop-color="#3F0D85"/><stop offset="1" stop-color="#221783"/></linearGradient><path clip-path="url(#B)" d="M224.6-30c-4.3-1.7-21-8.2-40.6-3.1-4.2 1.1-23.8 6.2-30.6 20.6-9 19 14 33.9 8.4 54.5C157 59.7 129 55.4 121 74.3c-4.2 9.9-2.5 23 4.5 30.6 21.7 23.6 117.3 17.9 141.8-33.9 17.8-37.6-7.8-87.3-42.7-101z" fill="url(#C)"/><defs><path id="D" d="M234.9-1.9H64.2c-.4 0-.7.3-.7.6V100c0 .3.3.6.7.6h170.7c.4 0 .7-.3.7-.6V-1.3c-.1-.3-.5-.6-.7-.6z"/></defs><clipPath id="E"><use xlink:href="#D"/></clipPath><g clip-path="url(#E)"><defs><path id="F" d="M225-29.7c-4.3-1.7-21-8.2-40.6-3.1-4.2 1.1-23.8 6.2-30.6 20.6-9 19 14 33.9 8.4 54.5-4.8 17.7-32.8 13.3-40.8 32.3-4.2 9.9-2.5 23 4.5 30.6 21.7 23.6 117.2 17.9 141.8-33.8C285.5 33.8 259.9-16 225-29.7z"/></defs><clipPath id="G"><use xlink:href="#F"/></clipPath><linearGradient id="H" gradientUnits="userSpaceOnUse" x1="175.197" y1="16.478" x2="193.738" y2="-44.061"><stop offset="0" stop-color="#3F0D85"/><stop offset="1" stop-color="#221783"/></linearGradient><path clip-path="url(#G)" d="M112.6-61.8c-2.6 3.5-12.8 17-10.6 35.2.5 3.9 2.7 22 17.3 30.5 19.4 11.3 39.8-6.4 61.5 2.2 18.7 7.3 9 31.2 28.5 41.6 10.2 5.4 24.9 6.2 34.5 1.4 29.9-15 40.3-100-12.4-130.7-38.3-22.2-97.5-8.5-118.8 19.8z" fill="url(#H)"/><defs><path id="I" d="M234.9-1.9H64.2c-.4 0-.7.3-.7.6V100c0 .3.3.6.7.6h170.7c.4 0 .7-.3.7-.6V-1.3c-.1-.3-.5-.6-.7-.6z"/></defs><clipPath id="J"><use xlink:href="#I"/></clipPath><path clip-path="url(#J)" d="M235.8 32c-3.6-3.8-7.7-6.6-11.9-7.9-8.5-2.7-21-.4-29.1 5.2-7.7 5.3-8.8 12.4-9.9 19.2s-2 13.2-9.4 17.1c-8.3 4.4-17 4.1-25.5 3.7-9.3-.3-18.2-.7-26.1 5.2-7.4 5.5-11.4 14.9-11.2 26.5.1 6.7 2.4 16.9 13 26.9 10.2 9.8 28.2 16.1 48.1 16.9 20.9.8 40.8-4.6 54.7-14.9 19-14.2 27.5-38.5 22.7-65.1-2.7-13.5-8.2-25.3-15.4-32.8zm-111.9 93.8c-8.9-9.3-10.9-18.6-11-24.8-.2-11.5 3.8-20.7 11-26.2 7.8-5.8 16.6-5.4 25.9-5.1 8.5.4 17.3.7 25.7-3.8 7.6-4.1 8.5-10.5 9.6-17.4 1.1-6.8 2.1-13.8 9.7-19 8-5.5 20.4-7.7 28.8-5.1 4.1 1.3 8.1 4 11.7 7.8 7.1 7.5 12.7 19.2 15.2 32.7 4.8 26.5-3.6 50.7-22.5 64.8-13.7 10.3-33.6 15.6-54.4 14.8-19.7-.8-37.6-7.1-47.8-16.8-.6-.7-1.3-1.3-1.9-1.9z" opacity=".1" fill="#9780F9"/><defs><path id="K" d="M234.9-1.9H64.2c-.4 0-.7.3-.7.6V100c0 .3.3.6.7.6h170.7c.4 0 .7-.3.7-.6V-1.3c-.1-.3-.5-.6-.7-.6z"/></defs><clipPath id="L"><use xlink:href="#K"/></clipPath><path clip-path="url(#L)" d="M264.8-32.7c-6.1-2.8-12.1-4.2-17.5-4-10.9.5-23.5 8-29.5 17.5-5.6 9-2.9 17.3-.3 25.3s5 15.5-1 22.9c-6.7 8.3-16.6 11.4-26.2 14.4-10.7 3.4-20.7 6.6-26.2 16.3-5.2 9.1-4.4 21.1 2.2 33.9 3.8 7.4 12 17.7 29.2 24.6 16.8 6.7 40.3 6.5 62.7-.7 23.7-7.5 42.8-21.6 52.4-38.6 7.1-12.6 9.4-26.7 6.7-42-2.4-13.2-8.4-26.9-17.5-39.3-10.3-14-22.9-24.8-35-30.3zm-72.3 149.4c-15-6.8-22.4-16.2-25.9-23.1-6.5-12.7-7.3-24.6-2.2-33.6 5.4-9.6 15.4-12.8 26-16.1 9.6-3.1 19.6-6.2 26.4-14.6 6.1-7.5 3.7-15.1 1.1-23.2-2.6-8-5.2-16.2.3-25.1 5.9-9.4 18.4-16.9 29.1-17.3 7.8-.3 17 2.8 26.5 9.1 9.4 6.2 18.3 14.8 25.7 25 19.9 27.4 23.9 57.7 10.7 81-9.6 16.9-28.6 30.9-52.2 38.5-22.3 7.1-45.7 7.4-62.4.7l-.1.2.1-.2c-1.1-.5-2.1-.9-3.1-1.3z" fill="#5437AF"/><defs><path id="M" d="M234.9-1.9H64.2c-.4 0-.7.3-.7.6V100c0 .3.3.6.7.6h170.7c.4 0 .7-.3.7-.6V-1.3c-.1-.3-.5-.6-.7-.6z"/></defs><clipPath id="N"><use xlink:href="#M"/></clipPath><linearGradient id="O" gradientUnits="userSpaceOnUse" x1="246.806" y1="101.714" x2="252.294" y2="-3.014"><stop offset="0" stop-color="#3F0D85"/><stop offset="1" stop-color="#221783"/></linearGradient><path clip-path="url(#N)" d="M225.5-1.9h48v102.5h-48z" fill="url(#O)"/><defs><path id="P" d="M234.9-1.9H64.2c-.4 0-.7.3-.7.6V100c0 .3.3.6.7.6h170.7c.4 0 .7-.3.7-.6V-1.3c-.1-.3-.5-.6-.7-.6z"/></defs><clipPath id="Q"><use xlink:href="#P"/></clipPath><linearGradient id="R" gradientUnits="userSpaceOnUse" x1="241.894" y1="26.298" x2="258.936" y2="-29.346"><stop offset="0" stop-color="#3F0D85"/><stop offset="1" stop-color="#221783"/></linearGradient><path clip-path="url(#Q)" d="M225.5 52.1l35.7 1.4h21.1l4.4-7.1-8.9-24.8c0-.4-2.8-30.9-2.8-30.9L252.6-55l-10.4-25.3-13-5.3-3.7-1.3v139z" fill="url(#R)"/></g></svg>