<svg xmlns="http://www.w3.org/2000/svg" xmlns:xlink="http://www.w3.org/1999/xlink" viewBox="105 0 70.8 85.5"><path d="M237.4 9.7l-151-25.5c-.3-.1-.7.2-.7.6L67.3 93.6c-.1.3.2.7.5.8l151.1 25.5c.3.1.7-.2.7-.6L238 10.5c-.1-.5-.3-.7-.6-.8z" fill="#fff"/><path d="M61-12.2h118.4v119.5H61z" fill="#FDFDFF"/><defs><path id="A" d="M237.3 9.7l-175-29.5c-.4-.1-.8.2-.8.5L42.8 91.2c-.1.3.2.7.6.8l175 29.5c.4.1.8-.2.8-.5l18.6-110.5c.1-.4-.1-.7-.5-.8z"/></defs><clipPath id="B"><use xlink:href="#A"/></clipPath><linearGradient id="C" gradientUnits="userSpaceOnUse" x1="117.785" y1="83.891" x2="294.71" y2="2.248"><stop offset="0" stop-color="#3F0D85"/><stop offset="1" stop-color="#221783"/></linearGradient><path clip-path="url(#B)" d="M232.4-22.7c-4.1-2.6-20-12.6-41-10.4-4.5.5-25.5 2.6-35.2 17.2-12.7 19.2 8.1 39.4-1.4 60.9-8.2 18.5-36.1 8.9-47.8 28.2-6.1 10.1-6.8 24.6-1 34.1 17.9 29.5 117 39.8 151.6-12.5 25.1-37.9 8-96.5-25.2-117.5z" fill="url(#C)"/><defs><path id="D" d="M237.7 9.8l-175-29.5c-.4-.1-.8.2-.8.5L43.2 91.2c-.1.3.2.7.6.8l175 29.5c.4.1.8-.2.8-.5l18.6-110.5c0-.3-.2-.7-.5-.7z"/></defs><clipPath id="E"><use xlink:href="#D"/></clipPath><g clip-path="url(#E)"><defs><path id="F" d="M232.6-22.3c-4.1-2.6-20-12.6-41-10.4-4.5.5-25.5 2.6-35.2 17.2-12.7 19.2 8.1 39.4-1.4 60.9-8.2 18.5-36.1 8.8-47.8 28.2-6.1 10.1-6.8 24.6-1 34.1 17.9 29.5 116.9 39.8 151.6-12.3 25.2-38 8.1-96.7-25.2-117.7z"/></defs><clipPath id="G"><use xlink:href="#F"/></clipPath><linearGradient id="H" gradientUnits="userSpaceOnUse" x1="173.142" y1="19.484" x2="203.28" y2="-43.325"><stop offset="0" stop-color="#3F0D85"/><stop offset="1" stop-color="#221783"/></linearGradient><path clip-path="url(#G)" d="M123.4-76.7c-3.3 3.4-16.2 16.3-17.3 36.6-.2 4.3-1.3 24.5 12.1 36.2 17.8 15.7 42-.1 62.6 13 17.8 11.2 3.5 35.6 21.6 50.3 9.5 7.7 24.4 11.1 35.1 7.5 33.4-11.2 59.7-102.1 11.3-144.7-35.1-30.8-98.5-26.1-125.4 1.1z" fill="url(#H)"/><defs><path id="I" d="M237.7 9.8l-175-29.5c-.4-.1-.8.2-.8.5L43.2 91.2c-.1.3.2.7.6.8l175 29.5c.4.1.8-.2.8-.5l18.6-110.5c0-.3-.2-.7-.5-.7z"/></defs><clipPath id="J"><use xlink:href="#I"/></clipPath><path clip-path="url(#J)" d="M232.4 46.9c-3-4.8-6.7-8.5-10.7-10.7-8.2-4.4-21.5-4.1-30.8.6-8.9 4.4-11.3 12-13.7 19.2s-4.5 14-12.8 17c-9.3 3.4-18.2 1.5-26.8-.4-9.5-1.9-18.5-3.9-27.7 1.2-8.6 4.7-14.4 14.3-16.4 27-1.1 7.3-.6 18.8 8.4 31.6 8.7 12.4 25.9 22.4 46.2 26.7 21.3 4.5 42.7 2 58.8-6.8 22.1-12.2 35.3-37.2 35.2-67.1-.2-15.1-3.7-28.9-9.7-38.3zm-131.9 82.9c-7.4-11.7-7.8-22.2-6.7-28.9 1.9-12.6 7.7-21.9 16.1-26.7 9.1-5 18-3 27.5-1.1 8.6 1.9 17.6 3.8 27 .3 8.5-3.2 10.6-10 13-17.3 2.4-7.2 4.7-14.7 13.4-19 9.2-4.6 22.3-4.9 30.5-.6 4 2.1 7.6 5.8 10.6 10.5 5.9 9.4 9.5 23.1 9.6 38.3 0 29.7-13 54.7-35 66.8-15.9 8.9-37.3 11.2-58.5 6.7-20-4.3-37.2-14.2-45.9-26.6l-1.6-2.4z" opacity=".1" fill="#9780F9"/><defs><path id="K" d="M237.7 9.8l-175-29.5c-.4-.1-.8.2-.8.5L43.2 91.2c-.1.3.2.7.6.8l175 29.5c.4.1.8-.2.8-.5l18.6-110.5c0-.3-.2-.7-.5-.7z"/></defs><clipPath id="L"><use xlink:href="#K"/></clipPath><path clip-path="url(#L)" d="M274-18.7c-5.7-4.1-11.6-6.7-17.2-7.4-11.3-1.3-25.6 4.7-33.5 14-7.4 8.8-6.2 18.4-5 27.5 1.2 9.2 2.3 17.8-5.2 24.8-8.4 7.9-19.1 9.6-29.5 11.2-11.6 1.9-22.4 3.6-29.9 13.2-7 9-8.4 22.2-4 37.3 2.5 8.7 9 21.4 25.4 31.9 16 10.2 40.1 14.1 64.4 10.1 25.7-4.1 47.8-16.2 60.8-33C310 98.4 315 83.5 315 66.3c0-14.8-3.7-30.8-10.7-45.9-7.9-17-18.9-31-30.3-39.1zM172.4 131.7c-14.1-10-20-21.5-22.3-29.7-4.3-15-3-28.1 3.9-37 7.3-9.5 18.1-11.3 29.6-13.1 10.4-1.7 21.2-3.4 29.7-11.4 7.6-7.1 6.6-15.8 5.4-25.1-1.2-9.2-2.4-18.6 4.9-27.3 7.8-9.2 22-15.2 33-13.8 8.1 1 16.9 6 25.5 14.5 8.5 8.4 16 19.3 21.7 31.7 15.4 33.3 13.9 67-3.9 90.2-12.9 16.8-35 28.8-60.6 33-24.2 3.9-48.2.2-64.1-10l-.1.2.1-.2c-.9-.7-1.9-1.3-2.8-2z" fill="#5437AF"/><defs><path id="M" d="M237.7 9.8l-175-29.5c-.4-.1-.8.2-.8.5L43.2 91.2c-.1.3.2.7.6.8l175 29.5c.4.1.8-.2.8-.5l18.6-110.5c0-.3-.2-.7-.5-.7z"/></defs><clipPath id="N"><use xlink:href="#M"/></clipPath><linearGradient id="O" gradientUnits="userSpaceOnUse" x1="230.86" y1="124.8" x2="255.745" y2="11.556"><stop offset="0" stop-color="#3F0D85"/><stop offset="1" stop-color="#221783"/></linearGradient><path clip-path="url(#N)" d="M228.1 8.1l49.2 8.3-18.8 111.8-49.2-8.3z" fill="url(#O)"/><defs><path id="P" d="M237.7 9.8l-175-29.5c-.4-.1-.8.2-.8.5L43.2 91.2c-.1.3.2.7.6.8l175 29.5c.4.1.8-.2.8-.5l18.6-110.5c0-.3-.2-.7-.5-.7z"/></defs><clipPath id="Q"><use xlink:href="#P"/></clipPath><linearGradient id="R" gradientUnits="userSpaceOnUse" x1="239.694" y1="41.719" x2="267.395" y2="-16.008"><stop offset="0" stop-color="#3F0D85"/><stop offset="1" stop-color="#221783"/></linearGradient><path clip-path="url(#Q)" d="M218.2 67l36.3 7.7 21.6 3.6 5.8-7-4.6-28.6c.1-.4 2.8-34.2 2.8-34.2l-14.6-53.7-6-29.4-12.4-8-3.6-2.1L218.2 67z" fill="url(#R)"/></g></svg>