<svg xmlns="http://www.w3.org/2000/svg" xmlns:xlink="http://www.w3.org/1999/xlink" viewBox="0 0 610.5 800"><style><![CDATA[.B{stroke-miterlimit:10}.C{stroke-linejoin:round}.D{fill:#292760}.E{stroke-linecap:round}]]></style><path d="M602.2 749.9c-.3 2.2-2.4 3.7-4.6 3.4s-3.7-2.4-3.4-4.6 2.4-3.7 4.6-3.4 3.7 2.3 3.4 4.6z" fill="#fff"/><defs><path id="A" d="M706.1 914.3l-952.5-148.4 149.2-947.3L855.3-33z"/><path /></defs><clipPath><use xlink:href="#A"/></clipPath><path d="M319.6 479.2l35.7 48.6m8.4-80.5l44.5 60.7m17.8 24.3l44.6 60.8m-129-129.9l17.9 24.3m17.8 24.3l17.8 24.3m17.8 24.4l17.9 24.3m57.6 32.6l8.9 12.2m-89.6-214.3l35.7 48.6m-57.7-32.6l17.8 24.3m17.8 24.3l17.9 24.3m17.8 24.3l17.8 24.3" stroke-width="5" stroke="#fff" fill="none" class="B C E"/><path d="M297.8 525.2c-19-25.9-13.3-62.3 12.8-81.2l66.2-48c26.1-18.9 62.6-13.2 81.7 12.7l9.8-7.1c-1.9-23.1-9.9-45.9-24.7-66-42.5-58-124.3-70.7-182.6-28.4s-71.1 123.6-28.6 181.6c14.7 20.1 34.1 34.7 55.7 43.5l9.7-7.1z" class="D"/><path d="M374.7 412.4c5.5-66-11.9-134.1-54.2-191.8-51.2-69.8-128.1-109.7-208.3-116.4-18.1 78-3.4 163.1 47.7 232.9 42.3 57.7 102.2 95 167.1 109.9l47.7-34.6z" fill="#D9D9D9"/><defs><path id="C" d="M374.7 412.4c5.5-66-11.9-134.1-54.2-191.8-51.2-69.8-128.1-109.7-208.3-116.4-18.1 78-3.4 163.1 47.7 232.9 42.3 57.7 102.2 95 167.1 109.9l47.7-34.6z"/><path id="D" d="M230.5 579.2c-.4 2.2-2.5 3.8-4.7 3.4s-3.8-2.4-3.4-4.7c.4-2.2 2.5-3.8 4.7-3.4s3.7 2.5 3.4 4.7z"/></defs><clipPath id="E"><use xlink:href="#C"/></clipPath><path clip-path="url(#E)" d="M187.7 49.5L36.7 159 98 242.6l151-109.5z" class="D"/><path d="M112.2 104.2c-18.1 78-3.4 163.1 47.7 232.9 42.3 57.7 102.2 95 167.1 109.9l23.9-17.3-238.7-325.5z" opacity=".3" fill="#fff"/><path d="M385.5 461.7l-14.7 10.6L275 341.7l14.7-10.7z" class="D"/><path d="M263.4 236.4c14.3 19.5 10 46.8-9.6 61s-47 9.9-61.3-9.6-10-46.8 9.6-61c19.6-14.1 47-9.9 61.3 9.6" fill="#FF3E3E"/><path d="M253.6 243.5c10.3 14.1 7.2 33.9-7 44.1-14.2 10.3-34 7.2-44.4-6.9-10.3-14.1-7.2-33.9 7-44.1 14.2-10.3 34.1-7.2 44.4 6.9" fill="#333356"/><path d="M483.6 510.3c-.3-8.9-6-16.7-14.4-19.7 8.9-.3 16.8-6 19.8-14.4.3 8.9 6 16.7 14.4 19.7-8.9.3-16.8 6.1-19.8 14.4z" fill="#fff"/><g stroke-width="3" stroke="#fff" fill="none" class="B C E"><path d="M432.7 753l21.4-15.6"/><path d="M446.7 724.2l-6.6 41.9"/><path d="M422.3 741.9l42.1 6.6"/><path d="M451.2 755.8l-15.6-21.3m-80.5-538l-15.6-21.4"/><path d="M336.6 193.6L358 178"/><path d="M360.4 187.8l-26.2-4"/><path d="M349.3 172.8l-4.1 26"/></g><g fill="#fff"><path d="M199.5 83.8c-.7 4.3-4.7 7.2-9 6.5s-7.2-4.7-6.5-8.9c.7-4.3 4.7-7.2 9-6.5 4.2.7 7.2 4.7 6.5 8.9zm-92.2 253c-.7 4.3-4.7 7.2-9 6.5s-7.2-4.7-6.5-8.9c.7-4.3 4.7-7.2 9-6.5 4.2.6 7.1 4.6 6.5 8.9zm367.4 302.1c-.4 2.2-2.5 3.8-4.7 3.4s-3.8-2.4-3.4-4.7c.4-2.2 2.5-3.8 4.7-3.4 2.2.3 3.7 2.4 3.4 4.7z"/><use xlink:href="#D"/><path d="M259.2 89.9c-.4 2.2-2.5 3.8-4.7 3.4-2.2-.3-3.8-2.4-3.4-4.7.4-2.2 2.5-3.8 4.7-3.4 2.3.4 3.8 2.5 3.4 4.7z"/><use xlink:href="#D" x="363.6" y="79.3"/><use xlink:href="#D" x="-34.7" y="-61.3"/></g><path d="M612.6 477.4c-.7 4.3-4.7 7.2-9 6.5s-7.2-4.7-6.5-8.9c.7-4.3 4.7-7.2 9-6.5s7.2 4.6 6.5 8.9zm-267 162c-.7 4.3-4.7 7.2-9 6.5s-7.2-4.7-6.5-8.9c.7-4.3 4.7-7.2 9-6.5s7.2 4.7 6.5 8.9z" stroke-width="3" stroke="#fff" fill="none" class="B C"/></svg>