<svg xmlns="http://www.w3.org/2000/svg" viewBox="0 0 1224 792"><path d="M-34.4 507.9V341c5.1-3.2 5.1-6.4 10.3-6.4 56.5-16 87.3-41.7 102.7-80.2 10.3-25.7 15.4-51.3 25.7-80.2 10.3-48.1 41.1-93.1 87.3-134.8 10.3-9.6 20.5-22.5 30.8-32.1 0-3.2 5.1-9.6 15.4-12.8h359.6c30.8 12.8 66.8 16 102.7 19.3 51.4 3.2 97.6-3.2 143.8-16 5.1-3.2 15.4-3.2 20.5-3.2H1039c5.1 3.2 0 6.4-5.1 9.6-56.5 38.5-128.4 64.2-210.6 77-30.8 3.2-56.5 6.4-87.3 12.8-36 6.4-61.6 22.5-61.6 41.7-5.1 38.5 25.7 64.2 77 80.2 36 9.6 71.9 12.8 113 16 77 6.4 154.1 22.5 220.9 48.1 46.2 16 92.5 32.1 143.8 44.9 5.1 0 10.3 3.2 10.3 6.4v160.4c-5.1 3.2-15.4 3.2-20.5 0-36-3.2-66.8-6.4-102.7-3.2-66.8 0-133.6 9.6-190.1 35.3-51.4 22.5-87.3 54.5-97.6 96.3-5.1 32.1 5.1 61 36 86.6 15.4 12.8 36 25.7 56.5 38.5 25.7 12.8 41.1 28.9 66.8 41.7 5.1 3.2 10.3 6.4 5.1 9.6h-149c-15.4-3.2-30.8-12.8-41.1-19.3-15.4-6.4-36-12.8-56.5-16-30.8-3.2-51.4 3.2-71.9 16-10.3 6.4-15.4 12.8-25.7 19.3H479.2v-12.8c5.1-32.1-15.4-61-46.2-86.6-36-28.9-66.8-57.8-107.9-86.6-30.8-22.5-66.8-44.9-107.9-61-25.7-9.6-56.5-16-87.3-19.3-51.4-6.4-97.6-12.8-149-16-5-3-10.1-3-15.3-6.3z" fill="#FF8000"/><path d="M1249.8 328.3c-30.8-3.2-56.5-12.8-87.3-22.5-61.6-19.3-118.1-41.7-184.9-54.5-46.2-9.6-92.5-12.8-143.8-19.3-41.1-3.2-77-9.6-113-22.5-41.1-19.3-61.6-44.9-51.4-77 5.1-22.5 30.8-35.3 66.8-41.7C767 84.4 803 81.2 833.8 78c61.6-9.6 113-28.9 159.2-51.3 15.4-6.4 25.7-16 41.1-25.7 5.1 0 10.3-3.2 10.3-6.4h123.3c5.1 6.4 0 9.6-5.1 12.8-15.4 19.3-41.1 35.3-61.6 51.3-25.7 19.3-56.5 38.5-82.2 61-5.1 6.4-10.3 9.6-10.3 16-15.4 19.3 0 32.1 15.4 41.7 25.7 16 56.5 28.9 82.2 44.9 41.1 19.3 82.2 38.5 128.4 51.3 5.1 0 5.1 3.2 10.3 6.4 5 13 5 29 5 48.3z" fill="#f60"/><path d="M1271.2 551.1v256.6c0 3.6 0 7.2-11.6 7.2h-121.5c-5.8-3.6-11.6-3.6-11.6-7.2-17.4-28.9-52.1-47-92.6-65.1s-75.2-39.8-104.1-68.7c-28.9-32.5-34.7-75.9 5.8-104.8 34.7-28.9 81-43.4 138.9-43.4 57.9-3.6 115.7 3.6 167.8 18.1 11.5.1 23.1 3.7 28.9 7.3z" fill="#EE4D00"/><path d="M-34.4 507.9c46.2 6.4 92.5 9.6 143.8 16 51.4 6.4 102.7 16 149 38.5 36 19.3 66.8 41.7 97.6 64.2s56.5 44.9 82.2 67.4c20.5 19.3 41.1 35.3 46.2 57.8 5.1 12.8 5.1 28.9 0 41.7H330.3c-5.1-3.2-5.1-9.6 0-12.8 15.4-41.7 0-80.2-41.1-112.3s-92.5-51.3-159.2-54.5c-46.2-3.2-92.5 3.2-138.7 9.6-5.1 0-15.4 3.2-20.5 0-5.2-35.3-5.2-77.1-5.2-115.6zm1299.1 62.5l-82.6-20.6c-55.1-10.3-110.1-10.3-159.6 0-93.6 24.1-121.1 75.7-77.1 130.7 22 20.6 49.5 37.8 82.6 55 33 17.2 66.1 31 88.1 51.6 11 10.3 16.5 20.6 27.5 31H1006c-16.5-17.2-38.5-27.5-60.6-41.3-27.5-17.2-55.1-34.4-77.1-55-49.5-41.3-55.1-86-27.5-134.1 22-34.4 60.6-58.5 110.1-75.7 44-17.2 93.6-27.5 148.6-31 55.1-3.4 115.6 0 170.7 6.9-5.5 30.9-5.5 58.4-5.5 82.5z" fill="#f60"/><path d="M1249.8 276.9c-25.7-6.4-51.4-12.8-71.9-22.5-56.5-22.5-107.9-44.9-154.1-73.8-10.3-6.4-20.5-12.8-25.7-22.5-5.1-12.8 0-25.7 15.4-38.5 15.4-16 36-32.1 61.6-48.1 36-25.7 71.9-51.3 97.6-80.2h71.9c5.1 3.2 5.1 3.2 5.1 6.4v48.1c-10.3 16-30.8 28.9-46.2 41.7s-25.7 25.7-30.8 38.5c-10.3 25.7 5.1 44.9 30.8 61 10.3 9.6 25.7 16 36 22.5 5.1 6.4 5.1 9.6 10.3 12.8v54.6zM-31.1 625.7c46.2-6.4 87.3-12.8 133.6-12.8 66.8 0 123.3 12.8 169.5 41.7 36 22.5 56.5 48.1 66.8 77 5.1 19.3 5.1 38.5-5.1 57.8v3.2H215.6c-5.1-6.4-5.1-12.8 0-16v-38.5c-10.3-28.9-46.2-44.9-97.6-44.9-36 0-66.8 3.2-102.7 6.4-10.3 0-20.5 3.2-25.7 3.2s-10.3 0-15.4-3.2c-5.3-22.6-5.3-48.3-5.3-73.9z" fill="#EE4D00"/><path d="M237.9-5.5c-15.4 22.5-36 41.7-56.5 61-41.1 41.7-66.8 86.6-77 138-5.1 28.9-15.4 57.8-30.8 86.6C52.9 305.8 22.1 325-19 337.9c-5.1 0-10.3 3.2-15.4 3.2v-57.8c5.1-9.6 20.5-12.8 30.8-19.3 25.7-19.3 36-38.5 46.2-61 10.3-28.9 15.4-57.8 25.7-83.4C78.6 90.8 94 68.3 114.6 45.9c10.3-12.8 20.5-28.9 36-41.7 0-3.2 5.1-6.4 10.3-9.6l77-.1z" fill="#f60"/><path d="M-27.9 702.7l87.3-9.6c30.8-3.2 61.6-3.2 92.5 0 41.1 9.6 66.8 28.9 71.9 57.8 0 12.8 0 28.9-5.1 41.7h-149c-25.7-9.6-51.4-16-82.2-16-5.1 0-10.3 0-10.3-3.2-5.1-22.6-5.1-45.1-5.1-70.7z" fill="#D43300"/><path d="M160.8-5.5c-25.7 35.3-56.5 67.4-77 102.7-15.4 22.5-20.5 44.9-25.7 67.4-10.3 28.9-15.4 57.8-36 83.4-15.4 16-30.8 25.7-56.5 35.3v-73.8c10.3-25.7 15.4-48.1 15.4-73.8 5.1-32.1 20.5-57.8 41.1-86.6C37.5 33 52.9 17 68.4 4.2l15.4-9.7h77z" fill="#EE4D00"/><path d="M1249.8 222.4c-36-16-71.9-35.3-82.2-64.2-5.1-16 0-28.9 10.3-44.9 15.4-25.7 46.2-44.9 71.9-64.2v173.3zM83.8-5.5C63.2 20.2 37.5 42.7 17 71.6 1.6 90.8-8.7 113.3-8.7 135.7c-5.1 22.5-5.1 48.1-20.5 70.6 0 0 0 3.2-5.1 3.2V.9c0-3.2 0-6.4 10.3-6.4H83.8z" fill="#D43300"/><path d="M650.7 796.7c15.4-19.3 41.1-35.3 77-38.5 15.4 0 36 3.2 51.4 6.4 25.7 6.4 51.4 19.3 71.9 32.1H650.7zm219-802.2c-36 12.8-71.9 19.3-113 22.5-36 3.2-77 0-113-6.4-15.4-3.2-36-6.4-46.2-16l272.2-.1zM-24.6 773.4c25.7 0 51.4 3.2 77 9.6l15.4 9.6h-87.3c-5.1 0-5.1 0-5.1-3.2v-16z" fill="#BB1A00"/><path d="M417.6-2.2c36 3.2 71.9 6.4 107.9 16 30.8 9.6 41.1 25.7 46.2 44.9 10.3 41.7 15.4 83.4 36 121.9 25.7 44.9 71.9 70.6 143.8 83.4l164.4 25.7c66.8 12.8 128.4 35.3 184.9 64.2 10.3 6.4 20.5 12.8 25.7 19.3 15.4 16 10.3 25.7-10.3 35.3-15.4 6.4-36 12.8-56.5 19.3-71.9 19.2-138.7 41.6-200.3 70.5-41.1 19.3-71.9 44.9-97.6 70.6-20.5 22.5-36 48.1-61.6 70.6-20.5 19.3-51.4 25.7-87.3 22.5-87.3-6.4-174.6-54.5-195.2-109.1-10.3-19.3-5.1-38.5 0-57.8 5.1-12.8 10.3-28.9 5.1-41.7-5.1-19.3-20.5-32.1-46.2-38.5-25.7-9.6-56.5-9.6-82.2-16l-82.2-9.6c-41.1-6.4-66.8-22.5-66.8-51.3-5.1-35.3 0-70.6 5.1-109.1 5.1-32.1 10.3-61 30.8-93.1 15.4-32.1 46.2-57.8 77-83.4 25.8-19.4 51.5-35.4 87.4-45 15.4-3.2 41.1-6.4 71.9-9.6z" fill="#f90"/><path d="M201.9 222.4c0-41.7 20.5-80.2 61.6-115.5 30.8-19.3 66.8-35.3 113-35.3 30.8 0 56.5 6.4 77 16 25.7 9.6 36 25.7 51.4 41.7 25.7 32.1 36 67.4 56.5 102.7 10.3 16 20.5 32.1 41.1 44.9 25.7 19.3 56.5 25.7 92.5 32.1 41.1 6.4 82.2 12.8 123.3 22.5 15.4 3.2 30.8 9.6 46.2 19.3 30.8 19.3 30.8 41.7 0 61-30.8 22.5-71.9 35.3-113 51.3-15.4 6.4-41.1 12.8-66.8 16-20.5 3.2-46.2-3.2-56.5-16-15.4-16-25.7-32.1-36-51.3-15.4-22.5-36-41.7-66.8-54.5-20.5-9.6-51.4-12.8-77-16-41.1-3.2-87.3-6.4-128.4-16-25.7-6.4-51.4-9.6-66.8-22.5-30.8-9.6-41.1-28.9-46.2-51.3-5.1-9.9-5.1-19.5-5.1-29.1z" fill="#FFB300"/><path d="M381.7 283.3c-46.2-3.2-87.3-12.8-102.7-44.9-15.4-22.5-10.3-44.9 5.1-67.4 10.3-12.8 20.5-22.5 41.1-28.9 41.1-19.3 87.3-9.6 113 12.8 25.7 19.3 41.1 44.9 41.1 70.6 0 38.6-25.7 54.6-97.6 57.8z" fill="#fc0"/></svg>