<svg xmlns="http://www.w3.org/2000/svg" viewBox="0 -100 200 200"><path d="M125.7 24.6c-.2.4-.2.8 0 1.2l.1.2c.2.4.5.6.9.6l9.9.2 20.2.2-16-35.6-15.1 33.2zM13.9 35l1.3-.3 52-101.9c.9-1.8 2.7-3 4.5-3h.3c1.8 0 3.5 1.1 4.5 2.9l36.6 69.4c2.1 4 7.3 3.8 9.2-.3l21.6-47.2c.9-2 2.7-3.2 4.7-3.2 1.9 0 3.7 1.2 4.6 3.2l32.4 68.7c.9 2 2.8 3.2 4.8 3.2l2.3-.1C195 18 196.3 9.2 196.3 0c0-53-42.9-95.9-95.9-95.9S4.6-52.9 4.6 0c0 12.6 2.4 24.6 6.9 35.7.8-.2 1.6-.4 2.4-.7zm16.6-3.3l2.4-.7 4-.6 8.1-1.2 8.4-.8 8.2-.6 8.2-.4c8.1-.6 16.5-.6 24.6-.6L64-34.3l-33.5 66zm154.7 10.4c-5.1.6-10.4 1-15.6 1.4l-7.9.6c-2.8.2-5.8.2-8.6.4-2.6.2-5.1.3-7.7.4-2.6 0-5.5.2-8.1.2l-33.3.2H62.7c-2.6 0-5.1.2-7.7.2h-.5c-1.5.2-2.6.2-3.8.2-1.6 0-2.8 0-4 .2l-7.7.6c-1.4 0-2.6.2-3.9.2-1.4 0-2.6.2-3.9.4-2.5.4-4.9.6-7.4 1l-5.9 1c16.7 28 47.4 46.8 82.4 46.8 37.9 0 70.7-22 86.2-54-.3.1-.8.1-1.3.2z" fill="#F92621"/></svg>