<svg xmlns="http://www.w3.org/2000/svg" viewBox="52.5 5.3 95 86.8"><path d="M65.4 56.5c.6.8-.3 1.8-1.2 1.2l-.1-.1c-.6-.9.4-1.8 1.3-1.1-.1-.1 0 0 0 0z" fill="#56C1AD"/><path d="M60.5 56.8c-1.1 0-2.1-.9-2.1-2.1 0-1.1.9-2.1 2.1-2.1s2.1.9 2.1 2.1c-.1 1.2-1 2.1-2.1 2.1zm0-3a.94.94 0 0 0-1 1 .94.94 0 0 0 1 1 .94.94 0 0 0 1-1c0-.6-.5-1-1-1z" fill="#FFC552"/><path d="M120.4 16h-.7v.7a.65.65 0 0 1-.6.6.65.65 0 0 1-.6-.6V16h-.7a.65.65 0 0 1-.6-.6.65.65 0 0 1 .6-.6h.7v-.7a.65.65 0 0 1 .6-.6.65.65 0 0 1 .6.6v.7h.7a.65.65 0 0 1 .6.6c0 .4-.2.6-.6.6z" fill="#56C1AD"/><path d="M125.9 11.8c.6.8-.3 1.8-1.2 1.2l-.1-.1c-.6-.8.4-1.7 1.3-1.1-.1-.1 0 0 0 0zM83.5 30.9c-2.5-6.2-1.2-13.6 3.8-18.6 2.4-2.4 5.4-4 8.5-4.7l1.8 8.4c-3.9.8-6.8 4.3-6.8 8.5 0 1.1.2 2.2.6 3.2l-7.9 3.2z" fill="#345184"/><path d="M87.3 36.7l-.4-.4 6.3-5.9c1.6 1.7 3.8 2.7 6.3 2.7a8.71 8.71 0 0 0 8.7-8.7 8.79 8.79 0 0 0-4.8-7.8l3.8-7.7c1.7.8 3.2 1.9 4.6 3.3 6.7 6.7 6.7 17.7 0 24.4s-17.7 6.8-24.5.1z" fill="#fff"/><path d="M99.6 15.8c-.6 0-1.3.1-1.8.2L96 7.6c3.8-.8 7.8-.4 11.3 1.4l-3.8 7.7c-1.3-.6-2.6-.9-3.9-.9z" fill="#56C1AD"/><path d="M86.9 36.3c-1.5-1.6-2.7-3.4-3.4-5.4l8-3.2c.4 1 1 1.9 1.7 2.7l-6.3 5.9z" fill="#C0E6EF"/><path d="M139 20.6v57.9a1.79 1.79 0 0 1-1.8 1.8h-37a1.79 1.79 0 0 1-1.8-1.8V20.6a1.79 1.79 0 0 1 1.8-1.8h37c1 .1 1.8.9 1.8 1.8z" fill="#EF4136"/><path d="M94.3 81.9H143c.5 0 .8-.4.8-.8 0-.5-.4-.8-.8-.8H94.3c-.5 0-.8.4-.8.8 0 .5.4.8.8.8z" fill="#E2E2E2"/><path d="M139 20.6v4.3H98.4v-4.3a1.79 1.79 0 0 1 1.8-1.8h37c1 .1 1.8.9 1.8 1.8z" fill="#EF4136"/><path d="M118.7 78.8c-.9 0-1.7-.8-1.7-1.7s.8-1.7 1.7-1.7 1.7.8 1.7 1.7c-.1.9-.8 1.7-1.7 1.7zm-15.6-56.3a.68.68 0 0 1-.7-.7.7.7 0 1 1 1.4 0c-.1.4-.4.7-.7.7zm2.1 0a.68.68 0 0 1-.7-.7.7.7 0 1 1 1.4 0 .68.68 0 0 1-.7.7z" fill="#E6F3EB"/><path d="M99 25h39.3v48.7H99z" fill="#D2EEF7"/><path d="M99.6 35.5h6.5v5.8h-6.5zm1.4 14.7h13V56h-13zm-1.4-7.4H110v5.8H99.6z" fill="#A9DEE7"/><path d="M101 27h35.1v6.6H101z" fill="#EDF7F4"/><path d="M130.4 27.9h4.7v4.7h-4.7z" fill="#D3E8F2"/><path d="M103.3 28.2h10.1v.9h-10.1zm0 1.6h10.1v.9h-10.1zm0 1.6h6.8v.9h-6.8z" fill="#ADDCCA"/><path d="M115.5 57.9h20.8v9.8h-20.8z" opacity=".5" fill="#99D4BB"/><path d="M117.6 61.3h8.2v.8h-8.2zm0 1.5h6.2v.8h-6.2zm0 1.4h4.2v.8h-4.2zm4.7 0h2.5v.8h-2.5zm-4.7 1.5h5.7v.8h-5.7z" fill="#E6F3EB"/><path d="M101 58.1h10.4v10.4H101z" fill="#A1D6BC"/><path d="M108.7 61.1c2.3 3.4-1.3 7-4.7 4.7l-.3-.3c-2.3-3.4 1.3-7 4.7-4.7l.3.3z" fill="#7BC89F"/><path d="M108.6 63.3c0 .8-.4 1.5-1 2l-.6.3c-.1 0-.2.1-.3.1h-.6c-.3 0-.5 0-.7-.1-1-.3-1.7-1.2-1.7-2.4 0-.4.1-.8.2-1.1.2-.4.5-.7.8-1 .1-.1.2-.1.3-.2.2-.1.4-.2.6-.2h.5c1 0 1.9.7 2.3 1.6.2.4.2.7.2 1z" fill="#EFF4F4"/><g fill="#C2D6D0"><path d="M106.2 63.6c-.2 0-.3-.1-.3-.3v-1.6c0-.2.1-.3.3-.3s.3.1.3.3v1.6c0 .2-.2.3-.3.3z"/><path d="M106.2 63.6c-.1 0-.2 0-.2-.1-.1-.1 0-.3.1-.4l.8-.5c.1-.1.3 0 .4.1s0 .3-.1.4l-.8.5h-.2z"/></g><path d="M115.6 35.5h20.5V56h-20.5z" fill="#98D9EC"/><g fill="#F8FCF9"><path d="M125.8 46.7a2.65 2.65 0 0 1-2.6-2.6v-1.6a2.65 2.65 0 0 1 2.6-2.6 2.65 2.65 0 0 1 2.6 2.6v1.6c0 1.4-1.1 2.6-2.6 2.6z"/><path d="M125.8 45.3c-2.5 0-4.6 1.4-5.6 3.5-.6 1.2.3 2.6 1.7 2.6h7.8c1.3 0 2.2-1.4 1.7-2.6-1-2-3.1-3.5-5.6-3.5z"/></g><path d="M101 69.2h35.1v1.7H101z" fill="#FFE1AB"/><path d="M138.7 34.8v-6.1c.4 0 .8.4.8.8V34c0 .5-.4.8-.8.8zm0 6.9v-6.1c.4 0 .8.4.8.8v4.5c0 .4-.4.8-.8.8z" fill="#EF4136"/><path d="M121.8 25L99 47.7V35.5L109.6 25zm8.6 0L99 56.3v-6.2L124.2 25z" opacity=".3" fill="#F5FBFD"/><path d="M107.2 60v5.3a.55.55 0 0 1-.3.5v14.5h-6.7a1.79 1.79 0 0 1-1.8-1.8V49.3h7.2c.7 0 1.2.6 1.2 1.2v9c.2.1.4.3.4.5z" opacity=".3" fill="#385E82"/><g fill="#EF4136"><path d="M102.1 46.9v40.2c0 .7-.6 1.2-1.2 1.2H79.8c-.7 0-1.2-.6-1.2-1.2V46.9c0-.7.6-1.2 1.2-1.2h21.1c.7 0 1.2.5 1.2 1.2z"/><path d="M102.1 46.9v3H78.5v-3c0-.7.6-1.2 1.2-1.2h21.1c.8 0 1.3.5 1.3 1.2z"/></g><path d="M90.3 87.3c-.6 0-1.2-.5-1.2-1.2 0-.6.5-1.2 1.2-1.2.6 0 1.2.5 1.2 1.2 0 .6-.5 1.2-1.2 1.2zm-4.2-39.1a.47.47 0 0 1-.5-.5.5.5 0 1 1 1 0c-.1.3-.3.5-.5.5zm6.6-.3H88c-.1 0-.2-.1-.2-.2s.1-.2.2-.2h4.7c.1 0 .2.1.2.2s-.1.2-.2.2z" fill="#E6F3EB"/><path d="M79 49.9h22.7v33.8H79z" fill="#D2EEF7"/><path d="M80.8 67.9h4.1v1.3h-4.1zm10.5 0h4.1v1.3h-4.1zm-5.3 0h4.1v1.3H86zm-2.7 2.3h16.6v4.6H83.3z" fill="#EDF7F4"/><path d="M95.9 70.9h3.2v3.2h-3.2z" fill="#D5ECE4"/><path d="M82.4 71.1h7v.6h-7zm0 1.1h7v.6h-7zm0 1.1h4.7v.6h-4.7z" fill="#ADDCCA"/><path d="M80.8 75.9h12.1v5.7H80.8z" fill="#EDF7F4"/><path d="M82.4 76.8h6.2v.6h-6.2zm0 1.1h4.7v.6h-4.7zm0 1.1h3.2v.6h-3.2z" fill="#FFE1AB"/><path d="M86 79h1.9v.6H86z" fill="#ADDCCA"/><g fill="#FFE1AB"><path d="M82.4 80.1h4.3v.6h-4.3z"/><path d="M77.6 52h17.8v14.6H77.6z" opacity=".5"/></g><path d="M91.7 56.3c3.2 4.7-1.9 9.8-6.6 6.6-.2-.1-.4-.3-.5-.5-3.2-4.7 1.9-9.8 6.6-6.6.2.1.4.3.5.5z" fill="#FFC552"/><path d="M91.6 59.3c0 1.1-.6 2.2-1.4 2.8l-.8.5c-.1 0-.3.1-.4.1h-.8c-.4 0-.7 0-1-.2-1.4-.4-2.4-1.7-2.4-3.3 0-.5.1-1 .3-1.5.3-.6.7-1 1.2-1.4.1-.1.2-.1.4-.2l.9-.3c.2 0 .4-.1.6-.1 1.5 0 2.7.9 3.2 2.2.1.6.2 1 .2 1.4z" fill="#EFF4F4"/><g fill="#C2D6D0"><path d="M88.1 59.7c-.2 0-.4-.2-.4-.4v-2.2c0-.2.2-.4.4-.4s.4.2.4.4v2.2c0 .2-.1.4-.4.4z"/><path d="M88.1 59.7c-.1 0-.3-.1-.3-.2a.47.47 0 0 1 .1-.6l1.1-.7a.47.47 0 0 1 .6.1.47.47 0 0 1-.1.6l-1.1.7c-.1.1-.2.1-.3.1z"/></g><path d="M94.8 49.9L79 65.7v-8.5l7.3-7.3zm5.9 0L79 71.6v-4.2l17.5-17.5z" opacity=".3" fill="#F5FBFD"/><g opacity=".7"><path d="M94.2 75.9h6.6v6.6h-6.6z" fill="#A1D6BC"/><g fill="#F8FCF9"><path d="M97.5 79.5c-.5 0-.8-.4-.8-.8v-.5c0-.5.4-.8.8-.8.5 0 .8.4.8.8v.5c0 .4-.4.8-.8.8z"/><path d="M97.5 79.1c-.8 0-1.5.5-1.8 1.1-.2.4.1.8.5.8h2.5c.4 0 .7-.5.5-.8-.3-.7-.9-1.1-1.7-1.1z"/></g></g><path d="M97 52h2.6v17.2H97z" fill="#A1D6BC"/><path d="M101.9 62.1v-6.3a.47.47 0 0 1 .5.5v5.2c.1.4-.2.6-.5.6z" fill="#EF4136"/><path d="M86.2 45.7L84 52l-5 14.6-.5 1.4v-1.4h-1V52h1v-5.1c0-.7.6-1.2 1.2-1.2h6.5z" opacity=".3" fill="#385E82"/><path d="M66.8 90h38.6c.5 0 .8-.4.8-.8 0-.5-.4-.8-.8-.8H66.8c-.5 0-.8.4-.8.8s.4.8.8.8z" fill="#E2E2E2"/><path d="M73.8 86.9l.7-3.3-1.4-.2-.4 3.5z" fill="#D6DDEA"/><path d="M72.5 86.5c-.1 0-.2 0-.2.1-.5.4-1.9 1.1-2.7 1.2s-.8.5.3.5l2.5-.1c.5 0 .4.1 1.6.1 1 0 .7-1.2.3-1.8-.1-.2-.2-.3-.5-.2l-1.3.2z" fill="#345184"/><path d="M81.7 81.1l-2.5-2.2-.9 1.2 2.9 2z" fill="#D6DDEA"/><path d="M80.7 81.9c-.1.2 0 .6 0 .7.2.6.4 2.2.2 3s.2 1 .6-.1l.8-2.4c.2-.5.2-.3.6-1.5.2-.6-.7-1.1-1.4-1-.2 0-.2.1-.4.3 0 .3-.3.8-.4 1z" fill="#345184"/><path d="M73.3 35.1c-.5-.4-1.2-.3-1.6.1-1 1.2-2.1 2.4-3.1 3.3-.9.9-1.4 1.4-2 1.6-1.5-.4-4.2-4.3-5.6-6.8 0 0 0-.1-.1-.1l-.3-.3s-.1 0-.1-.1h-.3c-.5-.1-1.4.2-2.1-.1-.8-.3-1.9-.8-1.9-.1.1.8.6 1.5 1.2 1.7s2.2 0 2.7.2c1.1 1.9 3.3 7.6 6.3 8h.2c.9 0 2.1-.8 3.7-2.3.9-.9 2-2 3.1-3.4.4-.6.4-1.3-.1-1.7z" fill="#F9AE85"/><path d="M73.4 26.1c-1.5-.8-1.7 2.2-1.3 3.1.5 1 2.1 2 2.5 1.1.6-1 .9-3-1.2-4.2z" fill="#E07127"/><path d="M73.4 36.7l-3.1 3.4-1.7-1.6 3.1-3.3c.4-.5 1.1-.6 1.6-.1.5.4.5 1.1.1 1.6z" fill="#ED8C61"/><path d="M73.8 37.1a39.67 39.67 0 0 0-2.9 2.9l-2.3-2.2 3-3a1.57 1.57 0 0 1 2.2 0c.7.7.7 1.7 0 2.3z" fill="#2BBDBE"/><path d="M78.3 33.2c0 1-.1 2.3-.7 3.2l-.8 1.3a1.36 1.36 0 0 1-1.1.7c-.2 0-.5-.1-.7-.2-.6-.4-.8-1.2-.5-1.8 0 0 .1-.2.9-1.4.1-.2.2-.6.2-1.1 0-.6 0-1.2-.1-1.8-.1-.7.4-1.4 1.1-1.5s1.4.4 1.5 1.1c.1.2.1.8.2 1.5z" fill="#F9AE85"/><path d="M81.5 35.4c-.7 3.8-2 13.4-1.7 17.2h-9.6s.6-14.2 1.5-17.6c.1-.4.5-.7.9-.7h7.9c.7 0 1.1.6 1 1.1z" fill="#4AC3CE"/><g fill="#345184"><path d="M79.4 58.9s1.2-2.1.4-6.2h-9.6l.1 6.2h9.1z"/><path d="M81.4 80.2L80 81.6c-.7-.4-1.9-1.1-3.2-2.1-1.2-.9-2.5-2.1-3.7-3.3-1.7-1.8-3-3.7-3.3-5.4-.6-3.8.5-12.8.7-13.8.1-1 1.2-1.5 2.3-1.4 1 .1 2.1 1.2 1.9 2.2-.3 2.5-1.4 9.6-1 12.4 0 .1.1.3.1.4.4 1.3 1.8 3.2 3.5 5.1 1.3 1.7 2.8 3.3 4.1 4.5z"/></g><path d="M77.2 75.8l-.4 3.6c-1.2-.9-2.5-2.1-3.7-3.3l.5-4.5c0-.3.1-.6.1-1 .5 1.3 1.9 3.3 3.5 5.2z" fill="#234063"/><path d="M72.4 85.3c0-.1.8-10.1 1.2-13.6L75.5 57c.2-1 1.7-1.7 2.7-1.5s1.7 1.2 1.6 2.2c0 .1-1.6 9.2-2.7 14.8-.3 4-2.4 12.8-2.5 13.3" fill="#345184"/><path d="M78.3 33.2c-.7.4-1.5.7-2.3.7h-.4c0-.6 0-1.2-.1-1.8-.1-.7.4-1.4 1.1-1.5s1.4.4 1.5 1.1c.1.2.1.8.2 1.5z" fill="#ED8C61"/><path d="M72.2 29c0 2.4 1.3 4.3 3.6 4.3 1.8 0 4.7-1.9 4.7-4.3s-1.9-4.3-4.3-4.3c-2.3 0-4 1.9-4 4.3zm14.6 15.9c0-1-1.2-3.3-2.6-5.6l-2.5-4c-.4-.5-1.1-.7-1.6-.3s-.7 1.1-.3 1.6l2.5 3.9 2 3.5c-1.2.4-4.2 1.3-6.9 1.5-.3 0-.6.2-.8.4-.1.1-.8 1.1-1.2 2.3-.2.6-.4 1.9.2 1.8s.9-.4 1.3-.5c.5-.2.6-.2.7-.6.1-.5.1-1.9.3-2.2 8.5-.7 8.8-1 8.9-1.8z" fill="#F9AE85"/><path d="M74.2 85.7H74a886.81 886.81 0 0 1 2.3-13.5c.8-4.4 2.3-14.8 2.4-14.9.4-1.5.3-2.9.1-4.8h.2c.2 1.6.3 3.2-.1 4.8 0 .1-1.5 10.5-2.4 14.9l-2.3 13.5z" fill="#7095C1"/><g fill="#E07127"><path d="M80 25.6c-1.3-1.2-2.2 1.7-2 2.7.2 1.1 1.5 2.4 2.2 1.7.8-.9 1.5-2.8-.2-4.4zm-4.1 7.5c.8-.6-.8-1.4-1.4-1.4-.7 0-1.5.7-1.2 1.1.6.5 1.6 1.1 2.6.3z"/><path d="M79.2 26.3c-1 .7-6.4.8-7.3-.5 0 0 .5.1 1.1 0 0 0-1-.4-1.4-.9 0 0 1.3.1 2.5-.4s3.6-1.2 5.2.2c1.4 1.2-.1 1.6-.1 1.6z"/></g><path d="M80.8 30.2c-.1.5-.4.8-.8 1s-1-.2-.9-.7l.3-1.3c.1-.5.7-.7 1-.3.4.4.5.9.4 1.3zm-6.4 4.1c-.2.8.6 1.3 1.9 1.1 1-.1 2-.6 2.8-1.1h-4.7z" fill="#F9AE85"/><path d="M84.2 39.3l-1.9 1.2-2.5-3.9a1.25 1.25 0 0 1 .3-1.6 1.25 1.25 0 0 1 1.6.3l2.5 4z" fill="#ED8C61"/><path d="M79.4 36.8l2.3 3.4 2.7-1.7L82 35c-.5-.7-1.5-.9-2.2-.4-.8.5-.9 1.5-.4 2.2z" fill="#4AC3CE"/><g fill="#7095C1"><path d="M74.7 52.5h.2V59h-.2z"/><path d="M74.8 57.9a1.11 1.11 0 0 1-1.1-1.1v-4.3h.2v4.3c0 .5.4.9.9.9v.2z"/></g><path d="M57.996 25.372l4.26 2.213-2.213 4.26-4.26-2.213zM55 30.5l-.8-.4.4-.8.4.2-.2.4.4.3zm8.3-2.5l-.3-.2.2-.4-.4-.2.2-.4.8.4z" fill="#FFE1AB"/><path d="M60.745 29.083l2.995-.164.115 2.097-2.995.164z" fill="#4AC3CE"/><path d="M60.228 23.772l1.317.908-.908 1.317-1.317-.908z" fill="#98D9EC"/><path d="M139.1 51.5v20.2" fill="none"/></svg>